<svg xmlns="http://www.w3.org/2000/svg" viewBox="0 0 600 400" preserveAspectRatio="xMidYMid slice" role="img" aria-label="Okno z gumowym ściągaczem - mycie okien i witryn">
  <defs>
    <linearGradient id="bg" x1="0" y1="0" x2="0" y2="1"><stop offset="0" stop-color="#f6f7f9"/><stop offset="1" stop-color="#ffffff"/></linearGradient>
    <linearGradient id="glass" x1="0" y1="0" x2="1" y2="1"><stop offset="0" stop-color="#e6eaf2"/><stop offset="1" stop-color="#cfd6e1"/></linearGradient>
  </defs>
  <rect width="600" height="400" fill="url(#bg)"/>
  <g>
    <rect x="120" y="60" width="360" height="280" rx="6" fill="#16181d"/>
    <rect x="140" y="80" width="320" height="240" fill="url(#glass)"/>
    <line x1="300" y1="80" x2="300" y2="320" stroke="#16181d" stroke-width="6"/>
    <line x1="140" y1="200" x2="460" y2="200" stroke="#16181d" stroke-width="6"/>
    <path d="M170 110 l60 0 -90 90 0 -60 z" fill="#ffffff" fill-opacity="0.55"/>
    <path d="M340 220 l40 0 -60 60 0 -40 z" fill="#ffffff" fill-opacity="0.45"/>
  </g>
  <g>
    <rect x="380" y="120" width="120" height="14" rx="4" fill="#e2231a"/>
    <rect x="420" y="100" width="14" height="40" rx="3" fill="#16181d"/>
    <rect x="380" y="134" width="120" height="6" fill="#0a0c10"/>
  </g>
  <path d="M300 180 q40 0 80 -10" fill="none" stroke="#e2231a" stroke-width="3" opacity="0.6"/>
  <g fill="#e2231a">
    <path d="M90 100 l3 8 8 3 -8 3 -3 8 -3 -8 -8 -3 8 -3z"/>
    <circle cx="520" cy="280" r="6" opacity="0.6"/>
  </g>
</svg>
