<svg xmlns="http://www.w3.org/2000/svg" viewBox="0 0 600 400" preserveAspectRatio="xMidYMid slice" role="img" aria-label="Cząsteczka O3 - ozonowanie pomieszczeń">
  <defs><linearGradient id="bg" x1="0" y1="0" x2="0" y2="1"><stop offset="0" stop-color="#f6f7f9"/><stop offset="1" stop-color="#ffffff"/></linearGradient></defs>
  <rect width="600" height="400" fill="url(#bg)"/>
  <g fill="none" stroke="#e2231a" stroke-width="2.5" opacity="0.55">
    <path d="M100 200 q200 -80 400 0"/>
    <path d="M100 230 q200 -80 400 0" opacity="0.7"/>
    <path d="M100 170 q200 -80 400 0" opacity="0.7"/>
    <path d="M120 260 q180 -80 360 0" opacity="0.5"/>
    <path d="M140 290 q160 -80 320 0" opacity="0.4"/>
  </g>
  <g>
    <line x1="220" y1="200" x2="380" y2="200" stroke="#16181d" stroke-width="6"/>
    <line x1="300" y1="200" x2="300" y2="100" stroke="#16181d" stroke-width="6"/>
    <circle cx="220" cy="200" r="38" fill="#16181d"/>
    <circle cx="380" cy="200" r="38" fill="#16181d"/>
    <circle cx="300" cy="100" r="38" fill="#e2231a"/>
    <circle cx="220" cy="200" r="22" fill="none" stroke="#3a3d44" stroke-width="3"/>
    <circle cx="380" cy="200" r="22" fill="none" stroke="#3a3d44" stroke-width="3"/>
    <circle cx="300" cy="100" r="22" fill="none" stroke="#ffffff" stroke-width="3" opacity="0.5"/>
  </g>
  <g fill="#e2231a">
    <path d="M100 90 l3 8 8 3 -8 3 -3 8 -3 -8 -8 -3 8 -3z"/>
    <path d="M510 280 l3 8 8 3 -8 3 -3 8 -3 -8 -8 -3 8 -3z" opacity="0.7"/>
    <path d="M540 130 l2 6 6 2 -6 2 -2 6 -2 -6 -6 -2 6 -2z" opacity="0.6"/>
  </g>
</svg>
