<svg xmlns="http://www.w3.org/2000/svg" viewBox="0 0 600 400" preserveAspectRatio="xMidYMid slice" role="img" aria-label="Zwinięty dywan i bąbelki - pralnia dywanów">
  <defs><linearGradient id="bg" x1="0" y1="0" x2="0" y2="1"><stop offset="0" stop-color="#f6f7f9"/><stop offset="1" stop-color="#ffffff"/></linearGradient></defs>
  <rect width="600" height="400" fill="url(#bg)"/>
  <ellipse cx="300" cy="340" rx="220" ry="16" fill="#0a0c10" fill-opacity="0.09"/>
  <g transform="translate(120 210)">
    <rect x="40" y="0" width="320" height="110" fill="#1a1c20"/>
    <rect x="40" y="0" width="320" height="6" fill="#e2231a"/>
    <rect x="40" y="50" width="320" height="6" fill="#e2231a" opacity="0.5"/>
    <rect x="40" y="100" width="320" height="6" fill="#e2231a" opacity="0.5"/>
    <ellipse cx="40" cy="55" rx="28" ry="55" fill="#0f1014"/>
    <ellipse cx="360" cy="55" rx="28" ry="55" fill="#16181d"/>
    <ellipse cx="40" cy="55" rx="20" ry="40" fill="none" stroke="#3a3d44" stroke-width="3"/>
    <ellipse cx="40" cy="55" rx="12" ry="24" fill="none" stroke="#5a5d64" stroke-width="3"/>
    <ellipse cx="40" cy="55" rx="5" ry="11" fill="#3a3d44"/>
  </g>
  <circle cx="100" cy="110" r="24" fill="none" stroke="#e2231a" stroke-width="3"/>
  <circle cx="78" cy="68" r="12" fill="none" stroke="#e2231a" stroke-width="3" opacity="0.7"/>
  <circle cx="510" cy="90" r="18" fill="none" stroke="#e2231a" stroke-width="3" opacity="0.7"/>
  <circle cx="546" cy="142" r="9" fill="#e2231a" fill-opacity="0.45"/>
  <circle cx="430" cy="60" r="6" fill="#e2231a" fill-opacity="0.6"/>
</svg>
