<svg xmlns="http://www.w3.org/2000/svg" viewBox="0 0 600 400" preserveAspectRatio="xMidYMid slice" role="img" aria-label="Kanapa - pranie tapicerki meblowej">
  <defs><linearGradient id="bg" x1="0" y1="0" x2="0" y2="1"><stop offset="0" stop-color="#f6f7f9"/><stop offset="1" stop-color="#ffffff"/></linearGradient></defs>
  <rect width="600" height="400" fill="url(#bg)"/>
  <ellipse cx="300" cy="346" rx="230" ry="14" fill="#0a0c10" fill-opacity="0.08"/>
  <g>
    <rect x="100" y="200" width="400" height="100" rx="14" fill="#1a1c20"/>
    <rect x="100" y="180" width="40" height="140" rx="14" fill="#16181d"/>
    <rect x="460" y="180" width="40" height="140" rx="14" fill="#16181d"/>
    <rect x="150" y="160" width="300" height="80" rx="14" fill="#22252b"/>
    <rect x="160" y="200" width="130" height="70" rx="10" fill="#2c2f36"/>
    <rect x="310" y="200" width="130" height="70" rx="10" fill="#2c2f36"/>
    <line x1="300" y1="205" x2="300" y2="265" stroke="#1a1c20" stroke-width="3"/>
    <rect x="120" y="298" width="14" height="40" rx="3" fill="#0f1014"/>
    <rect x="466" y="298" width="14" height="40" rx="3" fill="#0f1014"/>
    <rect x="100" y="180" width="40" height="6" fill="#e2231a"/>
    <rect x="460" y="180" width="40" height="6" fill="#e2231a"/>
  </g>
  <g fill="none" stroke="#e2231a" stroke-width="3">
    <circle cx="100" cy="100" r="20" opacity="0.85"/>
    <circle cx="80" cy="140" r="10" opacity="0.6"/>
    <circle cx="500" cy="90" r="16" opacity="0.7"/>
  </g>
  <circle cx="538" cy="138" r="8" fill="#e2231a" fill-opacity="0.45"/>
</svg>
